<?xml version="1.0" encoding="iso-8859-1"?>
<!-- Generator: Adobe Illustrator 19.0.0, SVG Export Plug-In . SVG Version: 6.00 Build 0)  -->
<svg version="1.1" id="Capa_1" xmlns="http://www.w3.org/2000/svg" xmlns:xlink="http://www.w3.org/1999/xlink" x="0px" y="0px"
	 viewBox="0 0 512 512" style="enable-background:new 0 0 512 512;" xml:space="preserve">
<path style="fill:#FF086A;" d="M437.02,74.98C388.667,26.629,324.38,0,256,0S123.333,26.629,74.98,74.98S0,187.62,0,256
	s26.629,132.667,74.98,181.02S187.62,512,256,512s132.667-26.629,181.02-74.98S512,324.38,512,256S485.371,123.333,437.02,74.98z"/>
<path style="fill:#FF3683;" d="M255.959,0C187.595,0.011,123.323,26.639,74.98,74.98C26.629,123.333,0,187.62,0,256
	s26.629,132.667,74.98,181.02c48.343,48.342,112.614,74.97,180.978,74.98V0z"/>
<path style="fill:#FFD722;" d="M256,182.154c-40.719,0-73.846,33.127-73.846,73.846s33.127,73.846,73.846,73.846
	s73.846-33.127,73.846-73.846S296.719,182.154,256,182.154z"/>
<path style="fill:#FFE63F;" d="M255.959,182.155c-40.699,0.023-73.805,33.14-73.805,73.845s33.106,73.823,73.805,73.845V182.155z"/>
<path style="fill:#303F9F;" d="M315.077,152.615c-3.78,0-7.56-1.441-10.443-4.326L256,99.656l-48.634,48.633
	c-5.767,5.768-15.119,5.768-20.887,0c-5.768-5.768-5.768-15.119,0-20.887l59.077-59.077c5.767-5.768,15.119-5.768,20.887,0
	l59.077,59.077c5.768,5.768,5.768,15.119,0,20.887C322.637,151.174,318.857,152.615,315.077,152.615z"/>
<path style="fill:#5C6BC0;" d="M255.959,64.002c-3.766,0.011-7.529,1.45-10.402,4.324l-59.077,59.077
	c-5.768,5.768-5.768,15.119,0,20.887c5.767,5.768,15.119,5.768,20.887,0l48.593-48.592V64.002z"/>
<path style="fill:#303F9F;" d="M256,448c-3.78,0-7.56-1.441-10.443-4.326l-59.077-59.077c-5.768-5.768-5.768-15.119,0-20.887
	c5.767-5.768,15.119-5.768,20.887,0L256,412.344l48.634-48.633c5.767-5.768,15.119-5.768,20.887,0
	c5.768,5.768,5.768,15.119,0,20.887l-59.077,59.077C263.56,446.559,259.78,448,256,448z"/>
<path style="fill:#5C6BC0;" d="M255.959,412.303l-48.593-48.592c-5.767-5.768-15.119-5.768-20.887,0
	c-5.768,5.768-5.768,15.119,0,20.887l59.077,59.077c2.873,2.874,6.636,4.314,10.402,4.324V412.303z"/>
<path style="fill:#303F9F;" d="M374.154,329.846c-3.78,0-7.56-1.441-10.443-4.326c-5.768-5.768-5.768-15.119,0-20.887L412.344,256
	l-48.634-48.634c-5.768-5.768-5.768-15.119,0-20.887c5.767-5.768,15.119-5.768,20.887,0l59.077,59.077
	c5.768,5.768,5.768,15.119,0,20.887l-59.077,59.077C381.714,328.405,377.934,329.846,374.154,329.846z"/>
<path style="fill:#5C6BC0;" d="M137.846,329.846c-3.78,0-7.56-1.441-10.443-4.326l-59.077-59.077
	c-5.768-5.768-5.768-15.119,0-20.887l59.077-59.077c5.767-5.768,15.119-5.768,20.887,0c5.768,5.768,5.768,15.119,0,20.887
	L99.656,256l48.633,48.634c5.768,5.768,5.768,15.119,0,20.887C145.406,328.405,141.626,329.846,137.846,329.846z"/>
<g>
</g>
<g>
</g>
<g>
</g>
<g>
</g>
<g>
</g>
<g>
</g>
<g>
</g>
<g>
</g>
<g>
</g>
<g>
</g>
<g>
</g>
<g>
</g>
<g>
</g>
<g>
</g>
<g>
</g>
</svg>
