<?xml version="1.0" encoding="iso-8859-1"?>
<!-- Generator: Adobe Illustrator 19.0.0, SVG Export Plug-In . SVG Version: 6.00 Build 0)  -->
<svg xmlns="http://www.w3.org/2000/svg" xmlns:xlink="http://www.w3.org/1999/xlink" version="1.1" id="Layer_1" x="0px" y="0px" viewBox="0 0 512 512" style="enable-background:new 0 0 512 512;" xml:space="preserve" width="512" height="512">
<g id="XMLID_343_">
	<g id="XMLID_344_">
		<g id="XMLID_345_">
			<path id="XMLID_346_" style="fill:#FC3E81;" d="M504.5,192.418v301.88c0,5.52-4.48,10-10,10h-477c-5.52,0-10-4.48-10-10v-301.88     c0-1.67,0.41-3.29,1.18-4.71c0.81-1.53,2.02-2.84,3.54-3.78l7.24-4.51l231.26-143.85c3.23-2.02,7.33-2.02,10.56,0l231.26,143.85     l7.24,4.51c1.52,0.94,2.73,2.25,3.54,3.78C504.09,189.128,504.5,190.749,504.5,192.418z"/>
			<path id="XMLID_347_" style="fill:#F01054;" d="M504.5,192.421v301.88c0,5.523-4.477,10-10,10h-477c-5.523,0-10-4.477-10-10     v-301.88c0-3.46,1.78-6.67,4.72-8.49l7.24-4.51L256,348.111l236.54-168.69l7.24,4.51C502.72,185.751,504.5,188.961,504.5,192.421     z"/>
			<g id="XMLID_348_">
				<path id="XMLID_351_" style="fill:#BDDFF4;" d="M325.47,312.677l-91.42,91.41c-3.33,3.33-8.73,3.33-12.06,0l-52.5-52.5      c-3.33-3.34-3.33-8.74,0-12.07l31-31l60.41-60.41c3.33-3.33,8.73-3.33,12.06,0l51.31,51.31l1.2,1.2      C328.8,303.947,328.8,309.347,325.47,312.677z"/>
				<path id="XMLID_354_" style="fill:#ADC9E2;" d="M325.47,312.677l-91.42,91.41c-3.33,3.33-8.73,3.33-12.06,0l-52.5-52.5      c-3.33-3.34-3.33-8.74,0-12.07l31-31l55.51,39.59l68.27-48.69l1.2,1.2C328.8,303.947,328.8,309.347,325.47,312.677z"/>
			</g>
			<path id="XMLID_357_" style="fill:#E3F4FF;" d="M504.5,192.418v301.88c0,5.52-4.48,10-10,10h-477c-5.52,0-10-4.48-10-10v-301.88     c0-1.67,0.41-3.29,1.18-4.71L256,364.078l247.32-176.37C504.09,189.128,504.5,190.749,504.5,192.418z"/>
			<path id="XMLID_360_" style="fill:#BDDFF4;" d="M504.5,192.418v301.88c0,5.52-4.48,10-10,10h-21.33c5.52,0,10-4.48,10-10v-292.22     l20.15-14.37C504.09,189.128,504.5,190.749,504.5,192.418z"/>
		</g>
		<g id="XMLID_361_">
			<path id="XMLID_2357_" style="fill:#E3F4FF;" d="M319.915,182.948l46.385,46.385c2.942,2.942,7.713,2.942,10.655,0l80.758-80.758     c2.942-2.942,2.942-7.713,0-10.655l-46.385-46.385c-2.942-2.942-7.713-2.942-10.655,0l-80.758,80.758     C316.972,175.235,316.972,180.006,319.915,182.948z"/>
		</g>
		<g id="XMLID_362_">
			<path id="XMLID_2353_" style="fill:#BDDFF4;" d="M223.873,135.903l65.017,8.716c4.124,0.553,7.916-2.342,8.469-6.467     l15.175-113.196c0.553-4.124-2.342-7.916-6.467-8.469L241.05,7.772c-4.124-0.553-7.916,2.342-8.469,6.467l-15.175,113.196     C216.853,131.559,219.749,135.35,223.873,135.903z"/>
		</g>
		<g id="XMLID_364_">
			<path id="XMLID_2351_" style="fill:#FC3E81;" d="M109.406,362.427l-51.268,79.635c-3.436,5.338,0.396,12.363,6.744,12.363     h102.536c6.348,0,10.18-7.025,6.744-12.363l-51.268-79.635C119.736,357.522,112.564,357.522,109.406,362.427z"/>
		</g>
		<g id="XMLID_366_">
			<path id="XMLID_2347_" style="fill:#E3F4FF;" d="M134.346,50.488l-64.719,64.719c-4.105,4.105-4.105,10.762,0,14.867     l112.678,112.678c4.105,4.105,10.762,4.105,14.867,0l64.719-64.719c4.105-4.105,4.105-10.762,0-14.867L149.213,50.488     C145.107,46.382,138.451,46.382,134.346,50.488z"/>
		</g>
	</g>
	<g id="XMLID_367_">
		<path id="XMLID_369_" d="M503.744,177.558l-39.768-24.737c2.229-2.689,3.444-6.037,3.444-9.573c0-4.016-1.564-7.791-4.404-10.631    l-46.385-46.386c-5.862-5.861-15.4-5.861-21.262,0l-14.742,14.742L315.353,60.37l4.614-34.416    c0.534-3.98-0.515-7.931-2.952-11.122c-2.438-3.192-5.972-5.244-9.952-5.777l-65.018-8.716c-3.978-0.533-7.929,0.514-11.121,2.951    c-3.192,2.438-5.244,5.972-5.778,9.952l-4.3,32.074l-40.813,25.387l-25.519-25.519c-7.023-7.021-18.45-7.021-25.474,0    l-64.719,64.719c-7.023,7.023-7.023,18.451,0,25.475l4.503,4.503l-60.57,37.677C3.086,180.775,0,186.33,0,192.418v301.88    c0,9.649,7.851,17.5,17.5,17.5h179.239c4.142,0,7.5-3.357,7.5-7.5s-3.358-7.5-7.5-7.5H17.5c-1.378,0-2.5-1.121-2.5-2.5V201.422    L251.645,370.19c1.303,0.929,2.829,1.394,4.355,1.394s3.052-0.465,4.355-1.394L497,201.422v92.299c0,4.143,3.358,7.5,7.5,7.5    s7.5-3.357,7.5-7.5V192.418C512,186.33,508.914,180.775,503.744,177.558z M452.41,143.272l-80.807,80.758l-42.152-42.152    l56.473-13.076c5.553-1.284,9.972-5.702,11.257-11.256l13.075-56.471L452.41,143.272z M392.766,110.09l-10.224,44.098    l-44.124,10.217L392.766,110.09z M289.887,137.186l-50.083-6.715l-5.473-5.472l33.421-40.4c3.632-4.391,4.463-10.583,2.115-15.777    l-23.879-52.817l59.112,7.956L289.887,137.186z M245.503,157.385l-71.662-16.592c-1.112-0.258-1.998-1.143-2.255-2.255    l-16.592-71.663L245.503,157.385z M237.557,33.782l18.638,41.256l-28.872,34.902L237.557,33.782z M218.264,64.588l-5.242,39.103    l-22.097-22.097L218.264,64.588z M114.759,185.813c2.929,2.928,7.678,2.928,10.606,0c2.929-2.93,2.929-7.678,0-10.607    L74.93,124.77c-0.768-0.768-0.882-1.664-0.882-2.13s0.115-1.362,0.882-2.13l62.593-62.592l19.45,84.003    c1.541,6.651,6.834,11.945,13.485,13.484l84.003,19.45l-62.593,62.592c-1.176,1.176-3.086,1.175-4.26,0l-37.832-37.831    c-2.929-2.928-7.678-2.928-10.606,0c-2.929,2.93-2.929,7.678,0,10.607l37.832,37.831c3.511,3.511,8.124,5.267,12.736,5.267    c4.613,0,9.226-1.756,12.737-5.267l64.719-64.719c7.023-7.023,7.023-18.451,0-25.475l-9.913-9.913l30.613,4.104    c0.675,0.091,1.344,0.135,2.007,0.135c7.409,0,13.879-5.497,14.891-13.039l8.375-62.474l56.569,35.189l-55.125,55.125    c-5.862,5.862-5.862,15.4,0,21.263l46.385,46.386c2.839,2.839,6.615,4.403,10.631,4.403s7.792-1.564,10.631-4.403l70.888-70.888    l37.839,23.538L333.743,299.428c-0.759-1.501-1.748-2.894-2.972-4.118l-52.506-52.506c-6.249-6.248-16.418-6.248-22.667,0    l-65.248,65.248L21.014,187.287l58.702-36.516L114.759,185.813z M202.733,316.883l50.985-50.986l-12.347,53.324    c-0.088,0.38-0.39,0.682-0.77,0.77l-25.297,5.857L202.733,316.883z M256,354.872l-24.397-17.399l12.382-2.867    c5.919-1.37,10.63-6.08,12-12l15.204-65.664l48.977,48.977c0.249,0.249,0.301,0.532,0.301,0.727s-0.052,0.479-0.301,0.728    l-6.067,6.067L256,354.872z"/>
		<path id="XMLID_380_" d="M504.5,320.744c-4.142,0-7.5,3.357-7.5,7.5v166.054c0,1.379-1.122,2.5-2.5,2.5H231.261    c-4.142,0-7.5,3.357-7.5,7.5s3.358,7.5,7.5,7.5H494.5c9.649,0,17.5-7.851,17.5-17.5V328.244    C512,324.101,508.642,320.744,504.5,320.744z"/>
		<path id="XMLID_381_" d="M459.92,424.925c4.142,0,7.5-3.357,7.5-7.5s-3.358-7.5-7.5-7.5h-31c-4.142,0-7.5,3.357-7.5,7.5    s3.358,7.5,7.5,7.5H459.92z"/>
		<path id="XMLID_382_" d="M349.001,448.681c0,4.143,3.358,7.5,7.5,7.5H459.92c4.142,0,7.5-3.357,7.5-7.5s-3.358-7.5-7.5-7.5    H356.501C352.359,441.181,349.001,444.539,349.001,448.681z"/>
		<path id="XMLID_383_" d="M116.15,351.249c-5.302,0-10.18,2.661-13.05,7.118c0,0.001,0,0.001,0,0.001l-51.268,79.634    c-3.077,4.778-3.297,10.846-0.576,15.834c2.722,4.989,7.942,8.089,13.625,8.089h102.537c5.683,0,10.904-3.1,13.625-8.088    c2.722-4.989,2.501-11.057-0.575-15.834L129.2,358.367C126.33,353.91,121.452,351.249,116.15,351.249z M167.875,446.653    c-0.148,0.271-0.334,0.271-0.457,0.271H64.881c-0.123,0-0.309,0-0.457-0.271s-0.047-0.427,0.02-0.531l51.268-79.635v0.001    c0.054-0.084,0.154-0.239,0.438-0.239s0.384,0.155,0.438,0.238l51.268,79.635C167.922,446.225,168.023,446.381,167.875,446.653z"/>
		<path id="XMLID_386_" d="M108.65,395.253v13.054c0,4.143,3.358,7.5,7.5,7.5s7.5-3.357,7.5-7.5v-13.054c0-4.143-3.358-7.5-7.5-7.5    S108.65,391.111,108.65,395.253z"/>
		<path id="XMLID_387_" d="M116.285,422.661l-0.075-0.001c-4.127-0.058-7.506,3.26-7.56,7.401s3.297,7.544,7.438,7.598    c0.034,0.001,0.066,0.001,0.1,0.001c4.096,0,7.444-3.294,7.498-7.402C123.741,426.116,120.427,422.714,116.285,422.661z"/>
	</g>
</g>















</svg>
