<?xml version="1.0" encoding="iso-8859-1"?>
<!-- Generator: Adobe Illustrator 19.0.0, SVG Export Plug-In . SVG Version: 6.00 Build 0)  -->
<svg version="1.1" id="Layer_1" xmlns="http://www.w3.org/2000/svg" xmlns:xlink="http://www.w3.org/1999/xlink" x="0px" y="0px"
	 viewBox="0 0 512 512" style="enable-background:new 0 0 512 512;" xml:space="preserve">
<path style="fill:#F8F8F9;" d="M496.327,318.694c0,17.312-14.035,31.347-31.347,31.347H47.02c-17.312,0-31.347-14.035-31.347-31.347
	V193.306c0-17.312,14.035-31.347,31.347-31.347H464.98c17.312,0,31.347,14.035,31.347,31.347V318.694z"/>
<path style="fill:#EDEDED;" d="M464.98,161.959H256v188.082h208.98c17.312,0,31.347-14.035,31.347-31.347V193.306
	C496.327,175.994,482.291,161.959,464.98,161.959z"/>
<path style="fill:#D8D8DA;" d="M464.98,365.714H47.02c-25.927,0-47.02-21.092-47.02-47.02V193.306
	c0-25.928,21.093-47.02,47.02-47.02H464.98c25.928,0,47.02,21.092,47.02,47.02v125.388C512,344.622,490.908,365.714,464.98,365.714z
	 M47.02,177.633c-8.642,0-15.673,7.031-15.673,15.673v125.388c0,8.643,7.031,15.673,15.673,15.673H464.98
	c8.643,0,15.673-7.03,15.673-15.673V193.306c0-8.642-7.03-15.673-15.673-15.673H47.02z"/>
<path style="fill:#C6C5CA;" d="M464.98,146.286H256v31.347h208.98c8.643,0,15.673,7.031,15.673,15.673v125.388
	c0,8.643-7.03,15.673-15.673,15.673H256v31.347h208.98c25.928,0,47.02-21.092,47.02-47.02V193.306
	C512,167.378,490.908,146.286,464.98,146.286z"/>
<g>
	<polygon style="fill:#88888F;" points="293.409,216.304 271.674,228.854 271.674,203.755 240.328,203.755 240.328,228.854 
		218.592,216.304 202.918,243.451 224.653,256 202.917,268.549 218.591,295.696 240.328,283.146 240.328,308.245 271.674,308.245 
		271.674,283.146 293.409,295.696 309.083,268.549 287.347,256 309.083,243.451 	"/>
	<polygon style="fill:#88888F;" points="448.369,243.451 432.695,216.304 410.961,228.854 410.961,203.755 379.615,203.755 
		379.615,228.854 357.879,216.304 342.205,243.451 363.941,256 342.204,268.549 357.878,295.696 379.615,283.146 379.615,308.245 
		410.961,308.245 410.961,283.146 432.695,295.696 448.369,268.549 426.634,256 	"/>
	<polygon style="fill:#88888F;" points="154.122,216.304 132.388,228.854 132.388,203.755 101.041,203.755 101.041,228.854 
		79.305,216.304 63.631,243.451 85.366,256 63.63,268.549 79.304,295.696 101.041,283.146 101.041,308.245 132.388,308.245 
		132.388,283.146 154.122,295.696 169.796,268.549 148.06,256 169.796,243.451 	"/>
</g>
<g>
	<polygon style="fill:#797781;" points="293.409,216.304 271.674,228.854 271.674,203.755 256,203.755 256,308.245 271.674,308.245 
		271.674,283.146 293.409,295.696 309.083,268.549 287.347,256 309.083,243.451 	"/>
	<polygon style="fill:#797781;" points="448.369,243.451 432.695,216.304 410.961,228.854 410.961,203.755 379.615,203.755 
		379.615,228.854 357.879,216.304 342.205,243.451 363.941,256 342.204,268.549 357.878,295.696 379.615,283.146 379.615,308.245 
		410.961,308.245 410.961,283.146 432.695,295.696 448.369,268.549 426.634,256 	"/>
</g>
<g>
</g>
<g>
</g>
<g>
</g>
<g>
</g>
<g>
</g>
<g>
</g>
<g>
</g>
<g>
</g>
<g>
</g>
<g>
</g>
<g>
</g>
<g>
</g>
<g>
</g>
<g>
</g>
<g>
</g>
</svg>
