<?xml version="1.0" encoding="iso-8859-1"?>
<!-- Generator: Adobe Illustrator 18.0.0, SVG Export Plug-In . SVG Version: 6.00 Build 0)  -->
<!DOCTYPE svg PUBLIC "-//W3C//DTD SVG 1.1//EN" "http://www.w3.org/Graphics/SVG/1.1/DTD/svg11.dtd">
<svg version="1.1" id="Capa_1" xmlns="http://www.w3.org/2000/svg" xmlns:xlink="http://www.w3.org/1999/xlink" x="0px" y="0px"
	 viewBox="0 0 459.157 459.157" style="enable-background:new 0 0 459.157 459.157;" xml:space="preserve">
<g>
	<path d="M116.368,260.075c0-7.313-2.054-14.446-5.94-20.627c-1.098-1.747-3.017-2.807-5.08-2.807s-3.981,1.06-5.08,2.807
		c-4.947,7.868-13.436,12.566-22.706,12.566s-17.759-4.698-22.706-12.566c-1.098-1.747-3.017-2.807-5.08-2.807
		s-3.981,1.06-5.08,2.807c-3.886,6.181-5.94,13.313-5.94,20.627c0,21.397,17.408,38.806,38.806,38.806
		S116.368,281.472,116.368,260.075z M77.563,286.88c-14.781,0-26.806-12.025-26.806-26.806c0-2.077,0.24-4.134,0.709-6.132
		c7.043,6.425,16.265,10.071,26.097,10.071s19.054-3.646,26.097-10.071c0.469,1.998,0.709,4.055,0.709,6.132
		C104.368,274.855,92.343,286.88,77.563,286.88z"/>
	<path d="M228.619,236.641c-2.063,0-3.981,1.06-5.08,2.807c-4.947,7.868-13.436,12.566-22.706,12.566s-17.759-4.698-22.706-12.566
		c-1.098-1.747-3.017-2.807-5.08-2.807s-3.981,1.06-5.08,2.807c-3.886,6.181-5.94,13.313-5.94,20.627
		c0,21.397,17.408,38.806,38.806,38.806c21.398,0,38.806-17.408,38.806-38.806c0-7.313-2.054-14.445-5.941-20.627
		C232.6,237.701,230.682,236.641,228.619,236.641z M200.833,286.88c-14.781,0-26.806-12.025-26.806-26.806
		c0-2.077,0.24-4.134,0.709-6.132c7.043,6.425,16.265,10.071,26.097,10.071s19.054-3.646,26.097-10.071
		c0.47,1.998,0.709,4.054,0.709,6.132C227.639,274.855,215.614,286.88,200.833,286.88z"/>
	<path d="M139.198,321.694c-30.039,0-54.477,24.438-54.477,54.477c0,10.267,2.884,20.278,8.339,28.955
		c1.098,1.746,3.016,2.806,5.079,2.806s3.981-1.06,5.079-2.807c7.839-12.467,21.29-19.909,35.979-19.909s28.14,7.442,35.979,19.909
		c1.098,1.747,3.016,2.807,5.079,2.807s3.981-1.06,5.079-2.806c5.456-8.676,8.339-18.688,8.339-28.955
		C193.675,346.132,169.236,321.694,139.198,321.694z M179.137,390.637c-10.209-11.051-24.542-17.422-39.939-17.422
		s-29.73,6.371-39.939,17.422c-1.672-4.61-2.538-9.5-2.538-14.467c0-23.422,19.055-42.477,42.477-42.477
		s42.477,19.055,42.477,42.477C181.675,381.137,180.81,386.027,179.137,390.637z"/>
	<path d="M436.36,8.432c-1.796-2.78-5.507-3.582-8.291-1.787c-31.825,20.521-68.744,31.505-106.765,31.766
		c-39.122,0.228-77.004-10.971-109.629-32.48c-1.333-0.877-2.962-1.189-4.522-0.865c-1.563,0.324-2.931,1.258-3.804,2.594
		c-14.775,22.619-22.584,48.906-22.584,76.021c0,30.535,6.21,61.308,18.469,91.567c-18.864,5.936-38.622,9.061-58.688,9.196h0
		c-0.446,0.003-0.892,0.005-1.338,0.005c-38.627,0-76.048-11.218-108.3-32.479c-1.333-0.878-2.959-1.19-4.522-0.865
		c-1.563,0.324-2.931,1.258-3.804,2.595C7.809,176.318,0,202.605,0,229.716c0,41.659,11.486,83.459,34.139,124.237
		c16.254,29.261,37.775,57.313,63.965,83.378c11.313,11.26,26.175,16.887,41.055,16.886c14.945-0.001,29.91-5.68,41.303-17.028
		c25.486-25.389,46.567-52.693,62.657-81.156c13.378-23.665,22.991-47.696,28.777-71.851c2.284,2.384,4.609,4.761,6.971,7.112
		c11.311,11.264,26.173,16.892,41.052,16.892c14.945,0,29.907-5.68,41.301-17.031c25.488-25.39,46.57-52.694,62.661-81.156
		c22.328-39.493,34.18-80.008,35.227-120.418C459.855,60.683,451.989,32.622,436.36,8.432z M232.673,350.127
		c-15.553,27.512-35.968,53.942-60.68,78.56c-18.068,17.998-47.417,18.063-65.424,0.139c-25.393-25.271-46.232-52.423-61.94-80.699
		C22.978,309.152,12,269.313,12,229.716c0-22.783,6.033-44.928,17.499-64.412c33.016,20.408,70.78,31.144,109.708,31.143
		c0.471,0,0.948-0.002,1.419-0.005h0c38.25-0.258,75.454-10.76,107.986-30.429c12.256,20.973,18.375,44.803,17.739,69.29
		C265.354,273.729,254.023,312.361,232.673,350.127z M278.338,228.589c-0.248-11.027-1.756-21.891-4.473-32.428
		c0.512-2.334,1.188-4.618,2.044-6.834c11.137,12.444,26.997,19.642,44.054,19.642c17.06,0,32.916-7.195,44.045-19.639
		c2.084,5.39,3.165,11.138,3.165,16.979c0,26.031-21.178,47.21-47.21,47.21C302.413,253.519,286.58,243.998,278.338,228.589z
		 M447.112,89.269c-0.996,38.426-12.326,77.058-33.677,114.823c-15.553,27.51-35.97,53.941-60.684,78.561
		c-18.069,18.002-47.415,18.064-65.417,0.137c-4.294-4.275-8.464-8.626-12.45-12.965c1.293-7.335,2.229-14.678,2.813-22.021
		c10.94,11.189,26.009,17.715,42.266,17.715c32.648,0,59.21-26.562,59.21-59.21c0-11.147-3.137-22.027-9.071-31.464
		c-1.098-1.746-3.017-2.806-5.08-2.806s-3.981,1.061-5.079,2.807c-8.708,13.853-23.653,22.123-39.98,22.123
		c-16.324,0-31.274-8.271-39.992-22.125c-1.098-1.746-3.016-2.805-5.078-2.805c0,0-0.001,0-0.001,0
		c-2.063,0.001-3.981,1.062-5.079,2.808c-0.672,1.069-1.296,2.16-1.895,3.263c-3.337-8.195-7.451-16.106-12.321-23.642
		c-1.797-2.781-5.508-3.58-8.292-1.785c-11.624,7.496-23.931,13.713-36.721,18.606c-11.824-28.999-17.82-58.445-17.82-87.61
		c0-22.786,6.034-44.931,17.5-64.412c33.416,20.656,71.681,31.394,111.121,31.144c38.25-0.263,75.454-10.768,107.989-30.435
		C441.627,40.949,447.745,64.779,447.112,89.269z"/>
	<path d="M381.596,90.606c-21.397,0-38.806,17.408-38.806,38.806c0,7.313,2.054,14.446,5.94,20.627
		c1.098,1.747,3.017,2.807,5.08,2.807s3.981-1.06,5.08-2.807c4.947-7.868,13.436-12.566,22.706-12.566s17.759,4.698,22.706,12.566
		c1.098,1.747,3.017,2.807,5.08,2.807s3.981-1.06,5.08-2.807c3.887-6.182,5.941-13.314,5.941-20.627
		C420.402,108.014,402.994,90.606,381.596,90.606z M407.693,135.543c-7.043-6.425-16.266-10.071-26.097-10.071
		s-19.054,3.646-26.097,10.071c-0.469-1.998-0.709-4.055-0.709-6.132c0-14.78,12.025-26.806,26.806-26.806
		s26.806,12.025,26.806,26.806C408.402,131.49,408.163,133.545,407.693,135.543z"/>
	<path d="M258.326,90.606c-21.397,0-38.806,17.408-38.806,38.806c0,7.313,2.054,14.446,5.94,20.627
		c1.098,1.747,3.017,2.807,5.08,2.807s3.981-1.06,5.08-2.807c4.947-7.868,13.436-12.566,22.706-12.566s17.759,4.698,22.706,12.566
		c1.098,1.747,3.017,2.807,5.08,2.807s3.981-1.06,5.08-2.807c3.886-6.181,5.94-13.313,5.94-20.627
		C297.131,108.014,279.723,90.606,258.326,90.606z M284.422,135.543c-7.043-6.425-16.265-10.071-26.097-10.071
		s-19.054,3.646-26.097,10.071c-0.469-1.998-0.709-4.055-0.709-6.132c0-14.78,12.025-26.806,26.806-26.806
		s26.806,12.025,26.806,26.806C285.131,131.489,284.892,133.545,284.422,135.543z"/>
</g>
<g>
</g>
<g>
</g>
<g>
</g>
<g>
</g>
<g>
</g>
<g>
</g>
<g>
</g>
<g>
</g>
<g>
</g>
<g>
</g>
<g>
</g>
<g>
</g>
<g>
</g>
<g>
</g>
<g>
</g>
</svg>
